<?xml version="1.0" encoding="UTF-8" standalone="no"?>
<!-- Created with Inkscape (http://www.inkscape.org/) -->

<svg
   xmlns:dc="http://purl.org/dc/elements/1.1/"
   xmlns:cc="http://creativecommons.org/ns#"
   xmlns:rdf="http://www.w3.org/1999/02/22-rdf-syntax-ns#"
   xmlns:svg="http://www.w3.org/2000/svg"
   xmlns="http://www.w3.org/2000/svg"
   xmlns:xlink="http://www.w3.org/1999/xlink"
   xmlns:sodipodi="http://sodipodi.sourceforge.net/DTD/sodipodi-0.dtd"
   xmlns:inkscape="http://www.inkscape.org/namespaces/inkscape"
   width="400"
   height="400"
   id="svg2"
   sodipodi:version="0.32"
   inkscape:version="0.48.0 r9654"
   version="1.0"
   sodipodi:docname="background.svg"
   inkscape:output_extension="org.inkscape.output.svg.inkscape"
   inkscape:export-filename="/home/jacek/kokua/indra/newview/packaging/mac/background.png"
   inkscape:export-xdpi="90"
   inkscape:export-ydpi="90">
  <defs
     id="defs4">
    <linearGradient
       inkscape:collect="always"
       id="linearGradient3452">
      <stop
         style="stop-color:#000000;stop-opacity:1;"
         offset="0"
         id="stop3454" />
      <stop
         style="stop-color:#000000;stop-opacity:0;"
         offset="1"
         id="stop3456" />
    </linearGradient>
    <linearGradient
       id="linearGradient3267">
      <stop
         style="stop-color:#000000;stop-opacity:0"
         offset="0"
         id="stop3269" />
      <stop
         id="stop3371"
         offset="0.61385024"
         style="stop-color:#000000;stop-opacity:0;" />
      <stop
         id="stop3277"
         offset="0.78066623"
         style="stop-color:#000000;stop-opacity:0.08235294;" />
      <stop
         style="stop-color:#000000;stop-opacity:0.29292929;"
         offset="0.89573979"
         id="stop3321" />
      <stop
         id="stop3275"
         offset="0.92770761"
         style="stop-color:#000000;stop-opacity:0.37373737;" />
      <stop
         style="stop-color:#000000;stop-opacity:0.60606062;"
         offset="0.98218459"
         id="stop3283" />
      <stop
         style="stop-color:#000000;stop-opacity:0;"
         offset="1"
         id="stop3271" />
    </linearGradient>
    <filter
       inkscape:collect="always"
       id="filter3317"
       color-interpolation-filters="sRGB">
      <feGaussianBlur
         inkscape:collect="always"
         stdDeviation="7.4217582"
         id="feGaussianBlur3319" />
    </filter>
    <filter
       inkscape:collect="always"
       id="filter3367"
       color-interpolation-filters="sRGB">
      <feGaussianBlur
         inkscape:collect="always"
         stdDeviation="2.9068022"
         id="feGaussianBlur3369" />
    </filter>
    <clipPath
       clipPathUnits="userSpaceOnUse"
       id="clipPath3373">
      <path
         sodipodi:type="arc"
         style="opacity:0.56050954;color:#000000;fill:none;stroke:#000000;stroke-width:6.6500001;stroke-linecap:butt;stroke-linejoin:miter;stroke-miterlimit:4;stroke-opacity:0.60701755;stroke-dasharray:none;stroke-dashoffset:0;marker:none;visibility:visible;display:inline;overflow:visible;filter:url(#filter3367);enable-background:accumulate"
         id="path3375"
         sodipodi:cx="-407.7381"
         sodipodi:cy="468.03677"
         sodipodi:rx="181.54762"
         sodipodi:ry="181.54762"
         d="m -226.19048,468.03677 a 181.54762,181.54762 0 1 1 -363.09524,0 181.54762,181.54762 0 1 1 363.09524,0 z"
         transform="matrix(0.9637699,0,0,0.9637699,-14.772405,16.957034)" />
    </clipPath>
    <filter
       inkscape:collect="always"
       id="filter3425"
       color-interpolation-filters="sRGB">
      <feGaussianBlur
         inkscape:collect="always"
         stdDeviation="3.5634934"
         id="feGaussianBlur3427" />
    </filter>
    <radialGradient
       inkscape:collect="always"
       xlink:href="#linearGradient3267"
       id="radialGradient4193"
       gradientUnits="userSpaceOnUse"
       gradientTransform="matrix(1.0316233,-1.2394263e-7,1.2394262e-7,1.0316232,12.89393,-14.800849)"
       cx="-407.7381"
       cy="468.03677"
       fx="-407.7381"
       fy="468.03677"
       r="181.54762" />
    <filter
       inkscape:collect="always"
       id="filter4195"
       x="-0.10817638"
       width="1.2163528"
       y="-0.13472541"
       height="1.2694508">
      <feGaussianBlur
         inkscape:collect="always"
         stdDeviation="19.20256"
         id="feGaussianBlur4197" />
    </filter>
    <linearGradient
       inkscape:collect="always"
       xlink:href="#linearGradient3452"
       id="linearGradient4206"
       gradientUnits="userSpaceOnUse"
       gradientTransform="matrix(0.7156152,0,0,0.7156152,9.6337541,83.196428)"
       x1="313.96567"
       y1="244.9019"
       x2="450.8374"
       y2="409.90189" />
    <filter
       inkscape:collect="always"
       id="filter4265">
      <feGaussianBlur
         inkscape:collect="always"
         stdDeviation="0.725"
         id="feGaussianBlur4267" />
    </filter>
  </defs>
  <sodipodi:namedview
     id="base"
     pagecolor="#ffffff"
     bordercolor="#666666"
     borderopacity="1.0"
     gridtolerance="10000"
     guidetolerance="10"
     objecttolerance="10"
     inkscape:pageopacity="1"
     inkscape:pageshadow="2"
     inkscape:zoom="1"
     inkscape:cx="175.50035"
     inkscape:cy="237.39885"
     inkscape:document-units="px"
     inkscape:current-layer="layer1"
     showgrid="false"
     inkscape:window-width="1071"
     inkscape:window-height="766"
     inkscape:window-x="194"
     inkscape:window-y="191"
     inkscape:showpageshadow="true"
     showborder="true"
     borderlayer="true"
     fit-margin-left="-2.7755576e-17"
     showguides="true"
     inkscape:guide-bbox="true"
     inkscape:window-maximized="0">
    <sodipodi:guide
       orientation="1,0"
       position="125,400"
       id="guide4199" />
    <sodipodi:guide
       orientation="1,0"
       position="275,400"
       id="guide4201" />
    <sodipodi:guide
       orientation="1,0"
       position="200,400"
       id="guide4203" />
    <sodipodi:guide
       orientation="0,1"
       position="0,325"
       id="guide4208" />
  </sodipodi:namedview>
  <metadata
     id="metadata7">
    <rdf:RDF>
      <cc:Work
         rdf:about="">
        <dc:format>image/svg+xml</dc:format>
        <dc:type
           rdf:resource="http://purl.org/dc/dcmitype/StillImage" />
        <dc:title></dc:title>
      </cc:Work>
    </rdf:RDF>
  </metadata>
  <g
     inkscape:label="Layer 1"
     inkscape:groupmode="layer"
     id="layer1"
     transform="translate(27.952759,-94.06856)">
    <g
       id="g3377"
       style="opacity:0.15;filter:url(#filter3425)"
       transform="translate(129.7728,-180.4032)">
      <path
         clip-path="url(#clipPath3373)"
         d="m -226.19048,468.03677 c 0,100.26599 -81.28163,181.54763 -181.54762,181.54763 -100.26598,0 -181.54762,-81.28164 -181.54762,-181.54763 0,-100.26598 81.28164,-181.54762 181.54762,-181.54762 100.26599,0 181.54762,81.28164 181.54762,181.54762 z"
         sodipodi:ry="181.54762"
         sodipodi:rx="181.54762"
         sodipodi:cy="468.03677"
         sodipodi:cx="-407.7381"
         id="path3257"
         style="opacity:0.96815287000000005;color:#000000;fill:url(#radialGradient4193);fill-opacity:1;fill-rule:nonzero;stroke:none;stroke-width:6.65000009999999975;marker:none;visibility:visible;display:inline;overflow:visible;filter:url(#filter3317);enable-background:accumulate"
         sodipodi:type="arc" />
      <path
         transform="matrix(0.9637699,0,0,0.9637699,-14.772405,16.957034)"
         d="m -226.19048,468.03677 c 0,100.26599 -81.28163,181.54763 -181.54762,181.54763 -100.26598,0 -181.54762,-81.28164 -181.54762,-181.54763 0,-100.26598 81.28164,-181.54762 181.54762,-181.54762 100.26599,0 181.54762,81.28164 181.54762,181.54762 z"
         sodipodi:ry="181.54762"
         sodipodi:rx="181.54762"
         sodipodi:cy="468.03677"
         sodipodi:cx="-407.7381"
         id="path2383"
         style="opacity:0.56050953999999997;color:#000000;fill:none;stroke:#000000;stroke-width:6.65000009999999975;stroke-linecap:butt;stroke-linejoin:miter;stroke-miterlimit:4;stroke-opacity:0.60701755000000002;stroke-dasharray:none;stroke-dashoffset:0;marker:none;visibility:visible;display:inline;overflow:visible;filter:url(#filter3367);enable-background:accumulate"
         sodipodi:type="arc" />
    </g>
    <g
       id="g2992"
       transform="matrix(0.5,0,0,0.5,28.29467,135.71161)">
      <path
         inkscape:connector-curvature="0"
         sodipodi:nodetypes="cccccccc"
         id="rect3387"
         d="m 242.36779,345.31809 45.13735,0 0,18.51771 48.02983,-35.02033 -48.02983,-35.00972 0,18.5071 -45.13735,0 0,33.00524 z"
         style="opacity:0.2;color:#000000;fill:url(#linearGradient4206);fill-opacity:1;fill-rule:nonzero;stroke:#000000;stroke-width:2.99127149999999986;stroke-linecap:butt;stroke-linejoin:round;stroke-miterlimit:4;stroke-opacity:1;stroke-dasharray:none;stroke-dashoffset:0;marker:none;visibility:visible;display:inline;overflow:visible;enable-background:accumulate" />
      <use
         height="1052.3622"
         width="744.09448"
         transform="matrix(0.40810838,0,0,0.40810838,250.94512,210.48287)"
         id="use3381"
         xlink:href="#g3377"
         y="0"
         x="0" />
      <use
         height="1052.3622"
         width="744.09448"
         transform="translate(300,-2.0000001e-6)"
         id="use3383"
         xlink:href="#use3381"
         y="0"
         x="0" />
    </g>
    <g
       transform="matrix(0.28360623,-0.05555444,0.05555444,0.28360623,41.340697,23.61192)"
       id="imprudence-shaka-group">
      <path
         inkscape:transform-center-y="-103.91224"
         inkscape:transform-center-x="-42.99817"
         style="opacity:0.2;fill:#5a2d65;fill-opacity:1;fill-rule:nonzero;stroke:none;filter:url(#filter4195)"
         d="m 176.28228,390.78272 c -2.6052,9.379 5.02828,17.0624 9.10907,22.53998 18.19597,24.42414 13.96017,36.10627 19.91223,65.93097 4.4149,22.12229 10.16111,47.51057 8.23849,64.18106 -3.53965,30.69128 -13.98651,83.76185 -9.67909,104.72705 3.17654,15.46097 19.6088,46.70655 36.08391,57.59917 14.42128,9.53471 50.86875,31.4564 73.25165,32.79859 38.44329,2.30524 71.68978,6.67961 96.16201,-1.72351 11.21263,-3.85012 18.31534,-15.07386 27.67856,-24.23152 29.70064,-29.04858 32.81205,-71.72338 57.90944,-101.48798 34.48838,-40.90194 67.21084,-80.63648 93.38213,-127.47004 3.72857,-6.67228 7.91337,-17.60363 8.06975,-22.49916 0.32815,-10.27306 -17.71477,-13.34783 -22.582,-14.04848 -5.60577,-0.80697 -16.34975,4.61951 -25.52053,15.81561 -8.23987,10.0596 -32.43311,35.69133 -37.95683,44.19571 -5.7738,8.88941 -25.18966,27.76643 -26.17525,27.15514 -4.22269,-2.61905 6.35495,-21.05509 -9.04364,-33.30483 -5.28828,-4.20689 -12.48755,-9.10499 -17.81706,-9.98863 -5.38536,-0.8929 -9.85265,0.56985 -14.48718,4.28691 -5.57353,4.47017 -5.18367,4.67497 -5.94269,-3.67511 -0.82046,-9.02586 -6.60597,-16.91285 -17.60001,-21.97806 -11.35002,-5.22922 -25.87389,-1.81297 -34.27755,4.32094 -3.79704,2.7715 -2.62917,1.04238 -3.23418,-2.90114 -1.12484,-7.33197 -6.07775,-18.40985 -23.88319,-21.11035 -8.47261,-1.28502 -16.43466,-2.88692 -23.27057,0.65081 -5.72465,2.96261 -11.67026,6.87451 -17.08667,18.39821 -2.04492,4.35067 -12.96987,20.3573 -17.53756,20.8545 -6.49217,0.70667 -11.06102,-12.11853 -23.28745,-36.24502 -9.3634,-18.47684 -12.43847,-45.33093 -19.62674,-56.56768 -5.42358,-8.47817 -21.18418,-20.26674 -37.13043,-24.27242 -24.15612,-6.068 -35.82053,-10.16869 -43.65862,18.04928 z"
         id="path3401"
         sodipodi:nodetypes="cssssssssssssssssssssssssssssss"
         inkscape:connector-curvature="0" />
      <path
         inkscape:connector-curvature="0"
         sodipodi:nodetypes="cssssssssssssssssssssssssssssss"
         id="trim"
         d="m 169.54896,379.34148 c -2.6052,9.379 5.02828,17.0624 9.10907,22.53998 18.19597,24.42414 13.96017,36.10627 19.91223,65.93097 4.4149,22.12229 10.16111,47.51057 8.23849,64.18106 -3.53965,30.69128 -13.98651,83.76185 -9.67909,104.72705 3.17654,15.46097 19.6088,46.70655 36.08391,57.59917 14.42128,9.53471 50.86875,31.4564 73.25165,32.79859 38.44329,2.30524 71.68978,6.67961 96.16201,-1.72351 11.21263,-3.85012 18.31534,-15.07386 27.67856,-24.23152 29.70064,-29.04858 32.81205,-71.72338 57.90944,-101.48798 34.48838,-40.90194 67.21084,-80.63648 93.38213,-127.47004 3.72857,-6.67228 7.91337,-17.60363 8.06975,-22.49916 0.32815,-10.27306 -17.71477,-13.34783 -22.582,-14.04848 -5.60577,-0.80697 -16.34975,4.61951 -25.52053,15.81561 -8.23987,10.0596 -32.43311,35.69133 -37.95683,44.19571 -5.7738,8.88941 -25.18966,27.76643 -26.17525,27.15514 -4.22269,-2.61905 6.35495,-21.05509 -9.04364,-33.30483 -5.28828,-4.20689 -12.48755,-9.10499 -17.81706,-9.98863 -5.38536,-0.8929 -9.85265,0.56985 -14.48718,4.28691 -5.57353,4.47017 -5.18367,4.67497 -5.94269,-3.67511 -0.82046,-9.02586 -6.60597,-16.91285 -17.60001,-21.97806 -11.35002,-5.22922 -25.87389,-1.81297 -34.27755,4.32094 -3.79704,2.7715 -2.62917,1.04238 -3.23418,-2.90114 -1.12484,-7.33197 -6.07775,-18.40985 -23.88319,-21.11035 -8.47261,-1.28502 -16.43466,-2.88692 -23.27057,0.65081 -5.72465,2.96261 -11.67026,6.87451 -17.08667,18.39821 -2.04492,4.35067 -12.96987,20.3573 -17.53756,20.8545 -6.49217,0.70667 -11.06102,-12.11853 -23.28745,-36.24502 -9.3634,-18.47684 -12.43847,-45.33093 -19.62674,-56.56768 -5.42358,-8.47817 -21.18418,-20.26674 -37.13043,-24.27242 -24.15612,-6.068 -35.82053,-10.16869 -43.65862,18.04928 z"
         style="fill:#ffffff;fill-opacity:1;fill-rule:nonzero;stroke:#000000;stroke-width:0.04071566;stroke-linecap:butt;stroke-linejoin:miter;stroke-miterlimit:4;stroke-opacity:1;stroke-dasharray:none"
         inkscape:transform-center-x="-42.99817"
         inkscape:transform-center-y="-103.91224" />
      <path
         inkscape:connector-curvature="0"
         sodipodi:nodetypes="cssssssssss"
         id="pinky"
         d="m 488.19147,526.86355 c -8.84396,7.78346 -9.99225,19.49908 -5.88887,30.50116 3.82086,10.24458 -0.46819,20.89358 6.46159,23.47998 8.14064,3.03833 36.81698,-34.69259 51.31635,-55.43896 9.50658,-13.60245 18.94017,-25.09007 27.17957,-41.8426 4.97723,-10.11982 12.67347,-18.96333 12.60368,-28.81398 -0.0417,-5.88029 -4.70485,-8.92953 -9.57321,-10.08721 -3.23395,-0.76902 -6.68616,-1.69328 -8.80662,-1.06832 -2.78606,0.82113 -5.23871,3.08676 -7.64238,4.67988 -7.13284,4.72754 -15.25286,16.84715 -19.69922,23.37601 -4.65173,6.83042 -27.63536,39.09477 -45.95089,55.21404 z"
         style="fill:#5a2d65;fill-opacity:1;fill-rule:nonzero;stroke:none"
         inkscape:transform-center-x="-245.68485"
         inkscape:transform-center-y="-198.0401" />
      <path
         inkscape:connector-curvature="0"
         sodipodi:nodetypes="csssssssssss"
         id="thumb"
         d="m 210.02862,500.75578 c 3.38269,9.06305 9.20606,7.53448 27.9479,-4.69884 8.37664,-5.46767 18.63608,-8.19799 27.18631,-12.12102 6.77564,-3.10882 10.01864,-10.12634 4.53276,-17.69614 -7.92809,-10.93974 -11.3904,-19.81241 -15.01334,-34.80576 -5.40082,-22.35102 -8.77533,-36.16922 -20.34773,-48.07814 -4.33223,-4.4582 -20.59556,-16.32112 -25.93515,-17.72093 -6.98235,-1.83047 -23.44366,-2.19613 -28.63066,6.70014 -1.9576,3.35751 -3.60088,12.84056 0.16002,17.81727 11.30677,14.962 16.87499,22.89522 19.00677,27.91942 2.54247,5.99212 5.21748,19.77161 7.56714,36.73578 1.67933,12.1245 -0.25392,35.82095 3.52598,45.94822 z"
         style="fill:#5a2d65;fill-opacity:1;fill-rule:nonzero;stroke:none"
         inkscape:transform-center-x="138.75429"
         inkscape:transform-center-y="-213.48413" />
      <path
         inkscape:connector-curvature="0"
         style="fill:#5a2d65;fill-opacity:1;fill-rule:nonzero;stroke:none"
         d="m 165.03125,159.21875 c -3.53734,0.0558 -8.51503,1.54579 -14.28125,5.875 0.0189,-0.0402 0.043,-0.0847 0.0625,-0.125 -7.66771,6.67583 -15.179,16.2577 -18.625,18.90625 -10.36639,7.96743 -19.26761,12.14319 -26.15625,23.09375 -5.87784,9.34375 -11.078111,20.0936 -8.4375,38.21875 5.85624,40.1972 8.12511,63.80234 24.96875,94.53125 9.37493,17.10328 39.5825,41.71179 52.25,47.1875 22.13262,9.56718 67.88186,13.30641 94,8.5 33.35559,-6.13828 64.201,-12.26833 80.96875,-29.90625 9.94773,-10.46398 18.21398,-30.70883 22.84375,-50.59375 7.4834,-32.14118 8.05243,-50.3407 16.15625,-72.3125 6.59132,-17.87096 -2.58323,-36.1495 -11.4375,-54.375 -1.50165,-1.82406 -3.31606,-2.95491 -5.625,-2.53125 -2.46849,0.45294 -5.04671,1.71181 -6.78125,7.5625 -2.51221,8.47369 -7.29294,21.85729 -10.0625,33.15625 -8.43832,34.42582 -4.82045,39.38318 -11.15625,65.59375 -3.07382,12.71607 -5.84753,33.86995 -12.5625,39.5625 -6.04293,5.12282 -17.71337,10.7781 -30.1875,9.8125 -24.01917,-1.85926 -23.91218,-23.77017 -30.1875,-22.75 -2.86459,0.46569 -11.84087,18.05628 -41.875,9.3125 -6.64567,-1.93474 -14.75727,-5.27403 -17.15625,-9.78125 -5.67137,-10.65533 0.0674,-22.68904 -0.8125,-23.125 -3.91401,-1.93933 -15.41842,7.60392 -34.3125,2.625 C 168.05426,295.39771 158.43502,280.92331 156.5,272 c -1.69072,-7.79675 2.05851,-17.05335 6.75,-28.96875 6.56863,-16.683 13.53025,-52.99544 13.40625,-63.03125 -0.0493,-3.98733 -4.47881,-17.85933 -6.96875,-19.65625 -0.93722,-0.67637 -2.53384,-1.15847 -4.65625,-1.125 z"
         transform="matrix(0.9051834,0.1773126,-0.1773126,0.9051834,163.93789,313.86976)"
         id="palm" />
      <path
         inkscape:connector-curvature="0"
         id="fingers"
         d="m 340.22671,446.59413 c -1.84667,-0.31151 -3.53958,-0.35931 -5.07037,0.0936 -6.94758,2.05538 -12.91041,9.79897 -16.25792,17.17037 -10.5187,23.16277 -19.78042,53.8146 -31.28502,79.63908 -4.28472,9.61803 -20.75409,32.51201 -21.95843,43.72251 -1.38231,12.86711 7.79098,21.20621 19.61785,24.756 16.0537,4.81851 23.5254,-5.60529 29.00368,-14.76177 2.10792,-3.52318 4.88744,-4.62887 2.31341,0.33567 -5.47244,10.55459 -21.83876,42.10604 2.5719,51.3474 18.84846,7.13562 26.51688,1.93859 31.97988,-8.36304 3.61186,-6.4251 6.07401,-13.38207 9.12931,-20.06476 4.41791,-9.6631 12.84631,-26.67517 21.73213,-43.76683 -5.60266,-3.24604 -11.65622,-6.68723 -18.11877,-10.21675 -7.95929,-4.34696 -16.75923,-8.93508 -25.39551,-13.40449 -3.52218,7.68228 -15.8774,34.08949 -16.87716,33.52698 -1.27184,-0.71561 11.40007,-26.79949 15.17208,-34.41906 -18.80692,-9.72835 -35.65656,-18.37902 -35.17868,-19.99109 0.42378,-1.42963 17.12376,6.77713 36.59743,17.09679 2.40746,-4.98948 6.3491,-14.23383 7.40725,-13.82267 1.51751,0.58967 -3.44901,9.86103 -5.75874,14.70366 8.38428,4.45884 17.1621,9.22449 25.4028,13.81714 6.29463,3.50809 12.30662,6.94759 18.01728,10.28498 7.99499,-15.3073 16.22226,-30.41348 22.14824,-40.04315 2.30085,-3.73893 3.11513,-8.16471 5.70444,-8.42861 1.6688,-0.17008 -1.23673,5.94836 -2.62991,9.67705 -4.02554,10.77379 -12.21343,26.00313 -20.63883,41.48435 20.19595,11.95367 34.53417,21.49422 33.61674,22.41676 -0.90426,0.90929 -14.18605,-7.87006 -34.90747,-20.02608 -9.56391,17.55864 -19.19469,35.1756 -23.23517,46.7915 -0.5583,1.605 -1.00402,3.24561 -1.45609,4.88431 -1.97094,7.14438 -2.59225,14.81025 -2.30864,19.43288 0.76104,12.40479 10.39069,17.24399 23.98139,20.32372 24.8752,5.63681 39.82145,-52.90266 49.68439,-75.65306 11.5256,-28.95073 28.35862,-48.02477 34.81735,-74.13008 2.14446,-8.66767 1.68382,-20.37102 -8.60427,-25.80019 -13.0357,-6.87911 -23.38152,-4.41056 -29.62528,0.54127 -1.60383,1.272 -4.01614,3.42581 -4.61258,4.35412 -0.5094,0.79286 -2.51939,-0.028 -2.7412,-1.30065 -0.18351,-1.05287 1.26577,-4.03754 1.23739,-5.86707 -0.0514,-3.31214 -0.7562,-10.01404 -1.346,-11.57203 -1.68229,-4.44378 -7.41038,-9.33301 -16.30401,-13.03347 -5.45979,-2.27171 -14.23575,-3.27703 -17.68024,-2.25905 -4.48354,1.77496 -9.28189,4.26298 -12.1288,7.78699 -10.50264,13.00059 -11.50405,22.41226 -19.04947,37.4192 -1.70334,3.38768 -4.83225,9.808 -5.74469,9.68373 -1.03817,-0.14137 1.59292,-6.95398 2.97578,-10.84294 5.84198,-16.42932 15.74825,-31.71279 13.75083,-45.00717 -0.49379,-3.28653 -1.59137,-6.3248 -3.00535,-8.04929 -2.10545,-2.56778 -8.02125,-6.87175 -14.7468,-8.0876 -3.64305,-0.6586 -7.11836,-1.85993 -10.19615,-2.37913 z"
         style="color:#000000;fill:#5a2d65;fill-opacity:1;fill-rule:nonzero;stroke:none;stroke-width:0.06140144;marker:none;visibility:visible;display:inline;overflow:visible;enable-background:accumulate" />
      <path
         inkscape:connector-curvature="0"
         style="color:#000000;fill:#ffffff;fill-opacity:1;fill-rule:evenodd;stroke:none;stroke-width:2.52261019;marker:none;visibility:visible;display:inline;overflow:visible;enable-background:accumulate"
         d="m 277.89304,601.44496 c -10.11743,-6.56474 -2.6242,-16.26337 1.74409,-27.58042 l 26.66014,16.60974 c -2.77515,10.42411 -13.34234,20.74365 -28.40423,10.97068 z"
         id="nail1"
         sodipodi:nodetypes="cccs" />
      <path
         inkscape:connector-curvature="0"
         style="color:#000000;fill:#ffffff;fill-opacity:1;fill-rule:evenodd;stroke:none;stroke-width:2.52261019;marker:none;visibility:visible;display:inline;overflow:visible;enable-background:accumulate"
         d="m 323.303,641.20522 c -9.59633,-3.72905 -12.24338,-15.05645 -5.26081,-29.84425 l 32.68896,10.85598 c -5.59678,9.38014 -12.04787,24.96493 -27.42815,18.98827 z"
         id="nail2"
         sodipodi:nodetypes="cccs" />
      <path
         inkscape:connector-curvature="0"
         style="color:#000000;fill:#ffffff;fill-opacity:1;fill-rule:evenodd;stroke:none;stroke-width:2.52261019;marker:none;visibility:visible;display:inline;overflow:visible;enable-background:accumulate"
         d="m 381.75463,661.26003 c -9.61563,-1.10529 -17.93367,-16.52202 -8.91794,-29.9086 l 26.20317,6.06571 c 0.79651,14.25624 -4.85219,25.27203 -17.28523,23.84289 z"
         id="nail3"
         sodipodi:nodetypes="cccs" />
    </g>
    <rect
       style="color:#000000;fill:none;stroke:#000000;stroke-width:1pt;stroke-linecap:butt;stroke-linejoin:miter;stroke-miterlimit:4;stroke-opacity:1;stroke-dasharray:none;stroke-dashoffset:0;marker:none;visibility:visible;display:inline;overflow:visible;enable-background:accumulate;opacity:0.17499999999999999;filter:url(#filter4265)"
       id="rect4239"
       width="343"
       height="237"
       x="0.54724097"
       y="229.44356"
       ry="24" />
  </g>
</svg>
